<svg width="697" height="109" viewBox="0 0 697 109" fill="none" xmlns="http://www.w3.org/2000/svg">
<path d="M94.4726 44.4656C93.7324 41.6176 92.6649 38.8624 91.2908 36.2539L84.7086 41.6986L69.697 54.0982L76.2364 59.5242L87.1591 50.4872C87.3166 51.7459 87.3975 53.0128 87.4012 54.2812C87.4059 58.5319 86.5199 62.7377 84.7988 66.6338L91.3715 72.0833C95.7784 63.5575 96.8747 53.7344 94.4536 44.4656H94.4726Z" fill="#0000FD"/>
<path d="M56.6494 65.7408L54.3464 63.8092L45.372 56.2867L43.0263 54.3173L28.0547 41.7545L21.5114 36.2539C20.1227 38.8903 19.0409 41.677 18.2872 44.5594C15.8404 53.9276 16.9061 63.8668 21.2835 72.5039L27.8695 66.9985C26.177 63.0832 25.3059 58.8624 25.3101 54.5972C25.3137 53.2833 25.3993 51.9708 25.5665 50.6675L36.4878 59.8131L38.8382 61.7827L47.8032 69.3051L50.1061 71.2366L56.6494 76.7278L63.226 71.2319L65.6951 69.1627L59.1519 63.6764L56.6494 65.7408Z" fill="#0000FD"/>
<path d="M37.0948 30.2485C37.8603 29.6177 38.6573 29.0312 39.4857 28.4888C46.6844 23.7136 55.5401 22.1446 63.9386 24.1562C72.3371 26.1677 79.5245 31.5794 83.7848 39.0991L90.2112 33.7159C84.3756 24.2781 74.84 17.7367 63.942 15.6951C53.0438 13.6535 41.7909 16.3005 32.9413 22.9872C32.1569 23.5785 31.4057 24.2029 30.6685 24.851C28.5639 26.7074 26.6631 28.7832 24.9982 31.0432L78.9272 76.3563C68.3816 87.137 51.6335 88.7993 39.1787 80.3015C38.3423 79.7339 37.5342 79.1236 36.7593 78.4802C33.7998 76.0075 31.3203 73.0104 29.4446 69.6391L23.0042 75.027C30.1605 86.7959 42.9277 93.9786 56.6904 93.9786C70.4531 93.9786 83.2203 86.7959 90.3765 75.027L83.9407 69.6248L37.0948 30.2485Z" fill="#0000FD"/>
</svg>